<svg xmlns="http://www.w3.org/2000/svg" version="1.1" viewBox="-5.0 -10.0 110.0 135.0">
 <path d="m69.43 18.598c-4.3438 0-7.8633 3.5234-7.8633 7.8711 0 4.3516 3.5195 7.875 7.8633 7.875 4.3477 0 7.8672-3.5234 7.8672-7.875 0-4.3477-3.5195-7.8711-7.8672-7.8711zm-47.145 9.3086c-0.69531 0-1.3555 0.27344-1.8477 0.76562-0.48828 0.48828-0.76172 1.1523-0.76172 1.8438s0.27344 1.3555 0.76172 1.8438c0.49219 0.48828 1.1523 0.76562 1.8477 0.76562h13.965c0.69141 0 1.3555-0.27734 1.8438-0.76562s0.76562-1.1523 0.76562-1.8438-0.27734-1.3555-0.76562-1.8438c-0.48828-0.49219-1.1523-0.76562-1.8438-0.76562zm26.98 0.85547h-0.13672c-0.98047 0.023437-1.9141 0.40625-2.6289 1.0781l-18.641 17.512c-0.76562 0.71875-1.2188 1.7109-1.25 2.7617-0.035156 1.0508 0.34766 2.0703 1.0664 2.8359 1.4961 1.5938 4 1.6719 5.5977 0.17969l16.406-15.414 19.613 12.531c1.5273 0.97656 3.5234 0.78906 4.8438-0.45703l13.344-12.527c1.5898-1.5 1.668-4.0039 0.17188-5.5977-1.5-1.5898-4.0039-1.6641-5.5977-0.16406l-11.094 10.418-19.613-12.531c-0.625-0.39844-1.3438-0.61719-2.082-0.625zm-35.133 15.172c-1.4375 0-2.6055 1.168-2.6055 2.6055 0 1.4414 1.1641 2.6094 2.6055 2.6094h5.6992c0.69531 0 1.3594-0.27344 1.8477-0.76563 0.48828-0.48828 0.76172-1.1523 0.76172-1.8438 0-1.4414-1.168-2.6055-2.6094-2.6055zm37.078 3.0625c-0.98047 0.015625-1.9141 0.39844-2.6289 1.0664l-28.199 26.496c-1.5938 1.4922-1.6758 3.9961-0.17969 5.5938 0.71875 0.76562 1.7109 1.2148 2.7617 1.25 1.0469 0.035156 2.0703-0.35156 2.8359-1.0703l25.957-24.387 7.3594 4.7109-9.8945 9.2891c-1.5938 1.4961-1.6719 4-0.17969 5.5938 1.4961 1.5938 4 1.6758 5.5977 0.17969l13.605-12.785c0.89062-0.83594 1.3438-2.0352 1.2266-3.25-0.11328-1.2148-0.77734-2.3086-1.8047-2.9648l-14.242-9.1016c-0.66016-0.42188-1.4336-0.64063-2.2148-0.62109zm-37.297 13.668c-0.69531-0.007812-1.3594 0.25781-1.8555 0.74219s-0.77734 1.1445-0.78516 1.8359c-0.015626 1.4375 1.1367 2.6172 2.5742 2.6367l8.3281 0.10547c0.69531 0.007813 1.3633-0.25781 1.8594-0.74609 0.49609-0.48438 0.77734-1.1484 0.78125-1.8398 0.019532-1.4414-1.1367-2.6211-2.5742-2.6406z"/>
<text x="0.0" y="117.5" font-size="5.0" font-weight="bold" font-family="Arbeit Regular, Helvetica, Arial-Unicode, Arial, Sans-serif" fill="#000000">Created by yode tive</text><text x="0.0" y="122.5" font-size="5.0" font-weight="bold" font-family="Arbeit Regular, Helvetica, Arial-Unicode, Arial, Sans-serif" fill="#000000">from Noun Project</text></svg>